<?xml version="1.0" encoding="utf-8"?>
<!-- Generator: Adobe Illustrator 16.0.0, SVG Export Plug-In . SVG Version: 6.00 Build 0)  -->
<!DOCTYPE svg PUBLIC "-//W3C//DTD SVG 1.1//EN" "http://www.w3.org/Graphics/SVG/1.1/DTD/svg11.dtd">
<svg version="1.1" id="Layer_1" xmlns="http://www.w3.org/2000/svg" xmlns:xlink="http://www.w3.org/1999/xlink" x="0px" y="0px"
	 width="311.811px" height="198.43px" viewBox="0 0 311.811 198.43" enable-background="new 0 0 311.811 198.43"
	 xml:space="preserve">
<rect x="-11.595" y="-6.285" fill="#231F20" width="332" height="213"/>
<polygon fill="#39B54A" points="53.248,77.146 9.376,77.146 15.766,83.352 31.099,83.352 31.099,123.147 37.852,123.147 
	37.852,83.352 46.76,83.352 53.473,123.147 63.764,123.147 71.755,89.261 81.539,123.147 91.84,123.147 96.09,77.371 89.614,77.318 
	85.817,114.674 71.387,67.637 59.042,114.513 "/>
<polygon fill="#8DC63F" points="97.825,77.95 96.627,92.938 107.808,123.147 119.886,93.063 119.93,123.147 126.422,123.147 
	126.422,77.297 120.578,77.297 108.026,106.081 "/>
<polygon fill="#82C886" points="11.767,71.399 26.645,54.897 34.016,54.897 34.016,56.251 35.521,57.004 35.521,46.49 40.184,46.49 
	40.184,54.696 70.482,54.702 56.539,71.308 "/>
<polygon fill="#8DC63F" points="7.803,75.583 58.071,75.595 71.576,58.788 88.13,75.583 109.281,75.583 111.525,72.746 
	89.011,72.757 71.437,54.702 56.93,72.278 10.948,72.278 "/>
<polygon fill="#B2D460" points="89.555,71.997 79.616,61.859 116.49,61.859 107.712,72.057 "/>
<polygon fill="#8DC63F" points="107.224,73.918 117.469,61.859 129.751,75.595 126.422,75.595 117.492,65.711 109.281,75.583 "/>
<linearGradient id="SVGID_1_" gradientUnits="userSpaceOnUse" x1="298.8699" y1="-64.8455" x2="298.8699" y2="-54.0798" gradientTransform="matrix(1 0 0 -1 -265.0547 0.6157)">
	<stop  offset="0" style="stop-color:#FFFFFF"/>
	<stop  offset="0.11" style="stop-color:#FAFAFA"/>
	<stop  offset="0.2339" style="stop-color:#EDEDED"/>
	<stop  offset="0.3646" style="stop-color:#D6D6D6"/>
	<stop  offset="0.5" style="stop-color:#B7B7B7"/>
	<stop  offset="0.639" style="stop-color:#8E8E8E"/>
	<stop  offset="0.7811" style="stop-color:#5C5C5C"/>
	<stop  offset="0.9229" style="stop-color:#232323"/>
	<stop  offset="1" style="stop-color:#000000"/>
</linearGradient>
<polygon opacity="0.4" fill="url(#SVGID_1_)" enable-background="new    " points="34.016,56.251 35.521,57.004 40.184,54.696 
	32.891,65.461 27.443,65.461 "/>
<g>
	<path fill="#8DC63F" d="M143.55,60.119c1.496-0.346,3.593-0.604,6.55-0.604c2.989,0,5.118,0.774,6.55,2.313
		c1.369,1.451,2.291,3.849,2.291,6.669c0,2.823-0.7,5.218-1.971,6.842c-1.655,2.094-4.104,3.036-6.965,3.036
		c-0.636,0-1.209-0.041-1.651-0.129v10.303h-4.803L143.55,60.119L143.55,60.119z M148.352,73.201
		c0.414,0.128,0.921,0.171,1.622,0.171c2.575,0,4.164-1.758,4.164-4.702c0-2.651-1.367-4.234-3.783-4.234
		c-0.986,0-1.654,0.128-2.002,0.258L148.352,73.201L148.352,73.201z"/>
	<path fill="#8DC63F" d="M160.051,60.119c1.558-0.346,3.878-0.604,6.455-0.604c3.181,0,5.405,0.643,6.931,2.269
		c1.273,1.366,1.974,3.378,1.974,6.031c0,3.677-1.939,6.199-3.786,7.098v0.127c1.496,0.813,2.324,2.737,2.863,5.386
		c0.666,3.253,1.334,7.012,1.748,8.123h-4.959c-0.348-0.812-0.859-3.162-1.495-6.709c-0.571-3.594-1.495-4.575-3.467-4.618h-1.463
		v11.327h-4.801V60.119L160.051,60.119z M164.851,72.518h1.905c2.418,0,3.851-1.624,3.851-4.144c0-2.655-1.333-3.979-3.563-4.026
		c-1.174,0-1.844,0.13-2.193,0.217V72.518L164.851,72.518z"/>
	<path fill="#8DC63F" d="M196.426,73.843c0,9.45-4.262,15.179-10.524,15.179c-6.36,0-10.081-6.456-10.081-14.664
		c0-8.64,4.103-15.099,10.43-15.099C192.833,59.259,196.426,65.89,196.426,73.843z M180.938,74.228c0,5.644,1.972,9.622,5.216,9.622
		c3.275,0,5.154-4.188,5.154-9.791c0-5.177-1.851-9.623-5.187-9.623C182.849,64.436,180.938,68.625,180.938,74.228z"/>
	<path fill="#8DC63F" d="M197.633,60.119c1.494-0.346,3.595-0.604,6.549-0.604c2.986,0,5.119,0.774,6.553,2.313
		c1.368,1.451,2.29,3.849,2.29,6.669c0,2.823-0.698,5.218-1.974,6.842c-1.654,2.094-4.1,3.036-6.964,3.036
		c-0.637,0-1.208-0.041-1.652-0.129v10.303h-4.802V60.119L197.633,60.119z M202.434,73.201c0.411,0.128,0.925,0.171,1.621,0.171
		c2.573,0,4.167-1.758,4.167-4.702c0-2.651-1.371-4.234-3.783-4.234c-0.988,0-1.655,0.128-2.005,0.258V73.201z"/>
	<path fill="#8DC63F" d="M226.884,76.363h-7.887v6.847h8.81v5.341h-13.669V59.731h13.225v5.342h-8.364v5.991h7.888v5.299H226.884z"
		/>
	<path fill="#8DC63F" d="M229.139,60.119c1.563-0.346,3.882-0.604,6.456-0.604c3.183,0,5.407,0.643,6.936,2.269
		c1.271,1.366,1.97,3.378,1.97,6.031c0,3.677-1.938,6.199-3.787,7.098v0.127c1.498,0.813,2.324,2.737,2.866,5.386
		c0.669,3.253,1.333,7.012,1.75,8.123h-4.963c-0.348-0.812-0.858-3.162-1.495-6.709c-0.569-3.594-1.491-4.575-3.466-4.618h-1.461
		v11.327h-4.806V60.119z M233.944,72.518h1.908c2.414,0,3.847-1.624,3.847-4.144c0-2.655-1.336-3.979-3.563-4.026
		c-1.177,0-1.844,0.13-2.192,0.217V72.518z"/>
	<path fill="#8DC63F" d="M251.146,65.204h-5.755v-5.473h16.47v5.473h-5.849V88.55h-4.866V65.204z"/>
	<path fill="#8DC63F" d="M269.624,88.549V76.75l-6.771-17.02h5.532l2.194,6.928c0.669,2.096,1.113,3.634,1.653,5.517h0.062
		c0.478-1.797,0.991-3.463,1.623-5.517l2.162-6.928h5.438l-7.059,16.806v12.013H269.624z"/>
</g>
<g>
	<path fill="#FFFFFF" d="M169.646,111.513"/>
	<path fill="#FFFFFF" d="M161.898,110.391c-0.15-4.044-0.33-8.903-0.3-12.518h-0.091c-0.69,3.398-1.53,7.014-2.551,11.013
		l-3.572,14.066h-1.979l-3.271-13.81c-0.96-4.087-1.77-7.828-2.34-11.271h-0.061c-0.061,3.613-0.21,8.474-0.39,12.818l-0.541,12.432
		h-2.491l1.411-28.992h3.331l3.451,14.022c0.84,3.571,1.529,6.752,2.04,9.766h0.09c0.511-2.925,1.229-6.107,2.131-9.766l3.6-14.022
		h3.332l1.26,28.992h-2.551L161.898,110.391z"/>
	<path fill="#FFFFFF" d="M170.107,114.006l-2.102,9.117h-2.7l6.871-28.992h3.15l6.901,28.992h-2.79l-2.162-9.117H170.107
		L170.107,114.006z M176.737,111.08l-1.98-8.346c-0.447-1.894-0.748-3.613-1.05-5.292h-0.059c-0.301,1.721-0.63,3.485-1.021,5.248
		l-1.979,8.39H176.737z"/>
	<path fill="#FFFFFF" d="M182.741,123.123V94.131h2.851l6.481,14.667c1.499,3.398,2.669,6.453,3.629,9.421l0.063-0.042
		c-0.241-3.873-0.301-7.399-0.301-11.916v-12.13h2.459v28.992h-2.642l-6.419-14.711c-1.411-3.227-2.762-6.538-3.78-9.679
		l-0.091,0.044c0.149,3.656,0.209,7.141,0.209,11.958v12.389L182.741,123.123L182.741,123.123z"/>
	<path fill="#FFFFFF" d="M203.296,114.006l-2.1,9.117h-2.701l6.87-28.992h3.15l6.901,28.992h-2.789l-2.162-9.117H203.296
		L203.296,114.006z M209.928,111.08l-1.981-8.346c-0.449-1.894-0.75-3.613-1.052-5.292h-0.061c-0.299,1.721-0.63,3.485-1.019,5.248
		l-1.982,8.39H209.928z"/>
	<path fill="#FFFFFF" d="M230.875,121.833c-1.174,0.604-3.482,1.591-6.213,1.591c-3.061,0-5.584-1.117-7.563-3.828
		c-1.738-2.409-2.821-6.278-2.821-10.797c0.03-8.646,4.172-14.968,10.953-14.968c2.344,0,4.173,0.731,5.043,1.333l-0.63,3.055
		c-1.081-0.689-2.432-1.248-4.474-1.248c-4.921,0-8.13,4.387-8.13,11.655c0,7.355,3.091,11.701,7.802,11.701
		c1.712,0,2.882-0.345,3.48-0.775v-8.646h-4.112v-3.011h6.664V121.833L230.875,121.833z"/>
	<path fill="#FFFFFF" d="M242.262,109.531H234.4v10.453h8.762v3.14H231.79V94.131h10.923v3.141H234.4v9.162h7.861L242.262,109.531
		L242.262,109.531z"/>
	<path fill="#FFFFFF" d="M261.753,110.391c-0.148-4.044-0.33-8.903-0.301-12.518h-0.091c-0.691,3.398-1.529,7.014-2.551,11.013
		l-3.569,14.066h-1.981l-3.271-13.81c-0.961-4.087-1.771-7.828-2.343-11.271h-0.06c-0.06,3.613-0.21,8.474-0.391,12.818
		l-0.539,12.432h-2.491l1.412-28.992h3.331l3.449,14.022c0.84,3.571,1.53,6.752,2.042,9.766h0.09c0.51-2.925,1.229-6.107,2.13-9.766
		l3.601-14.022h3.33l1.263,28.992h-2.551L261.753,110.391z"/>
	<path fill="#FFFFFF" d="M276.23,109.531h-7.861v10.453h8.762v3.14h-11.373V94.131h10.925v3.141h-8.313v9.162h7.861V109.531
		L276.23,109.531z"/>
	<path fill="#FFFFFF" d="M278.062,123.123V94.131h2.85l6.481,14.667c1.503,3.398,2.671,6.453,3.63,9.421l0.061-0.042
		c-0.237-3.873-0.299-7.399-0.299-11.916v-12.13h2.459v28.992h-2.64l-6.422-14.711c-1.412-3.227-2.762-6.538-3.782-9.679
		l-0.088,0.044c0.147,3.656,0.21,7.141,0.21,11.958v12.389L278.062,123.123L278.062,123.123z"/>
	<path fill="#FFFFFF" d="M299.804,97.315h-6.153v-3.184h14.972v3.184h-6.181v25.809h-2.638V97.315z"/>
</g>
</svg>
