<?xml version="1.0" encoding="UTF-8" standalone="no"?>
<!-- Generator: Adobe Illustrator 16.0.0, SVG Export Plug-In . SVG Version: 6.00 Build 0)  -->

<svg
   xmlns:dc="http://purl.org/dc/elements/1.1/"
   xmlns:cc="http://creativecommons.org/ns#"
   xmlns:rdf="http://www.w3.org/1999/02/22-rdf-syntax-ns#"
   xmlns:svg="http://www.w3.org/2000/svg"
   xmlns="http://www.w3.org/2000/svg"
   xmlns:sodipodi="http://sodipodi.sourceforge.net/DTD/sodipodi-0.dtd"
   xmlns:inkscape="http://www.inkscape.org/namespaces/inkscape"
   version="1.1"
   id="Layer_1"
   x="0px"
   y="0px"
   width="302.32001"
   height="79.346245"
   viewBox="0 0 302.32 79.346248"
   enable-background="new 0 0 311.811 198.43"
   xml:space="preserve"
   inkscape:version="0.91 r13725"
   sodipodi:docname="LogoWhite.svg"><metadata
     id="metadata3418"><rdf:RDF><cc:Work
         rdf:about=""><dc:format>image/svg+xml</dc:format><dc:type
           rdf:resource="http://purl.org/dc/dcmitype/StillImage" /><dc:title></dc:title></cc:Work></rdf:RDF></metadata><defs
     id="defs3416" /><sodipodi:namedview
     pagecolor="#ffffff"
     bordercolor="#666666"
     borderopacity="1"
     objecttolerance="10"
     gridtolerance="10"
     guidetolerance="10"
     inkscape:pageopacity="0"
     inkscape:pageshadow="2"
     inkscape:window-width="1366"
     inkscape:window-height="705"
     id="namedview3414"
     showgrid="false"
     fit-margin-top="0.5"
     fit-margin-left="0.5"
     fit-margin-right="0.5"
     fit-margin-bottom="0.8"
     inkscape:zoom="2.7012046"
     inkscape:cx="151.29565"
     inkscape:cy="-17.933166"
     inkscape:window-x="-8"
     inkscape:window-y="-8"
     inkscape:window-maximized="1"
     inkscape:current-layer="Layer_1" /><linearGradient
     id="SVGID_1_"
     gradientUnits="userSpaceOnUse"
     x1="298.8699"
     y1="-64.845497"
     x2="298.8699"
     y2="-54.0798"
     gradientTransform="matrix(1,0,0,-1,-265.0547,0.6157)"><stop
       offset="0"
       style="stop-color:#FFFFFF"
       id="stop3352" /><stop
       offset="0.11"
       style="stop-color:#FAFAFA"
       id="stop3354" /><stop
       offset="0.2339"
       style="stop-color:#EDEDED"
       id="stop3356" /><stop
       offset="0.3646"
       style="stop-color:#D6D6D6"
       id="stop3358" /><stop
       offset="0.5"
       style="stop-color:#B7B7B7"
       id="stop3360" /><stop
       offset="0.639"
       style="stop-color:#8E8E8E"
       id="stop3362" /><stop
       offset="0.7811"
       style="stop-color:#5C5C5C"
       id="stop3364" /><stop
       offset="0.9229"
       style="stop-color:#232323"
       id="stop3366" /><stop
       offset="1"
       style="stop-color:#000000"
       id="stop3368" /></linearGradient><polygon
     points="71.755,89.261 81.539,123.147 91.84,123.147 96.09,77.371 89.614,77.318 85.817,114.674 71.387,67.637 59.042,114.513 53.248,77.146 9.376,77.146 15.766,83.352 31.099,83.352 31.099,123.147 37.852,123.147 37.852,83.352 46.76,83.352 53.473,123.147 63.764,123.147 "
     id="polygon3339"
     style="fill:#39b54a;"
     transform="translate(-7.303,-45.99)" /><polygon
     points="96.627,92.938 107.808,123.147 119.886,93.063 119.93,123.147 126.422,123.147 126.422,77.297 120.578,77.297 108.026,106.081 97.825,77.95 "
     id="polygon3341"
     style="fill:#8dc63f;"
     transform="translate(-7.303,-45.99)" /><polygon
     points="11.767,71.399 26.645,54.897 34.016,54.897 34.016,56.251 35.521,57.004 35.521,46.49 40.184,46.49 40.184,54.696 70.482,54.702 56.539,71.308 "
     id="polygon3343"
     style="fill:#82c886;stroke:none;stroke-opacity:1"
     transform="translate(-7.303,-45.99)" /><polygon
     points="7.803,75.583 58.071,75.595 71.576,58.788 88.13,75.583 109.281,75.583 111.525,72.746 89.011,72.757 71.437,54.702 56.93,72.278 10.948,72.278 "
     id="polygon3345"
     style="fill:#8dc63f;stroke:none;stroke-opacity:1"
     transform="translate(-7.303,-45.99)" /><polygon
     points="116.49,61.859 107.712,72.057 89.555,71.997 79.616,61.859 "
     id="polygon3347"
     style="fill:#b2d460;stroke:none;stroke-opacity:1"
     transform="translate(-7.303,-45.99)" /><polygon
     points="117.492,65.711 109.281,75.583 107.224,73.918 117.469,61.859 129.751,75.595 126.422,75.595 "
     id="polygon3349"
     style="fill:#8dc63f;stroke:none;stroke-opacity:1"
     transform="translate(-7.303,-45.99)" /><polygon
     enable-background="new    "
     points="34.016,56.251 35.521,57.004 40.184,54.696 32.891,65.461 27.443,65.461 "
     id="polygon3370"
     style="opacity:0.4;fill:url(#SVGID_1_);stroke:none;stroke-opacity:1"
     transform="translate(-7.303,-45.99)" /><g
     id="g4239"
     style=""
     transform="translate(-7.303,-45.99)"><path
       d="m 143.55,60.119 c 1.496,-0.346 3.593,-0.604 6.55,-0.604 2.989,0 5.118,0.774 6.55,2.313 1.369,1.451 2.291,3.849 2.291,6.669 0,2.823 -0.7,5.218 -1.971,6.842 -1.655,2.094 -4.104,3.036 -6.965,3.036 -0.636,0 -1.209,-0.041 -1.651,-0.129 l 0,10.303 -4.803,0 -10e-4,-28.43 0,0 z m 4.802,13.082 c 0.414,0.128 0.921,0.171 1.622,0.171 2.575,0 4.164,-1.758 4.164,-4.702 0,-2.651 -1.367,-4.234 -3.783,-4.234 -0.986,0 -1.654,0.128 -2.002,0.258 l -0.001,8.507 0,0 z"
       id="path3374"
       inkscape:connector-curvature="0"
       style="fill:#8dc63f;" /><path
       d="m 160.051,60.119 c 1.558,-0.346 3.878,-0.604 6.455,-0.604 3.181,0 5.405,0.643 6.931,2.269 1.273,1.366 1.974,3.378 1.974,6.031 0,3.677 -1.939,6.199 -3.786,7.098 l 0,0.127 c 1.496,0.813 2.324,2.737 2.863,5.386 0.666,3.253 1.334,7.012 1.748,8.123 l -4.959,0 c -0.348,-0.812 -0.859,-3.162 -1.495,-6.709 -0.571,-3.594 -1.495,-4.575 -3.467,-4.618 l -1.463,0 0,11.327 -4.801,0 0,-28.43 0,0 z m 4.8,12.399 1.905,0 c 2.418,0 3.851,-1.624 3.851,-4.144 0,-2.655 -1.333,-3.979 -3.563,-4.026 -1.174,0 -1.844,0.13 -2.193,0.217 l 0,7.953 0,0 z"
       id="path3376"
       inkscape:connector-curvature="0"
       style="fill:#8dc63f;" /><path
       d="m 196.426,73.843 c 0,9.45 -4.262,15.179 -10.524,15.179 -6.36,0 -10.081,-6.456 -10.081,-14.664 0,-8.64 4.103,-15.099 10.43,-15.099 6.582,0 10.175,6.631 10.175,14.584 z m -15.488,0.385 c 0,5.644 1.972,9.622 5.216,9.622 3.275,0 5.154,-4.188 5.154,-9.791 0,-5.177 -1.851,-9.623 -5.187,-9.623 -3.272,0 -5.183,4.189 -5.183,9.792 z"
       id="path3378"
       inkscape:connector-curvature="0"
       style="fill:#8dc63f;" /><path
       d="m 197.633,60.119 c 1.494,-0.346 3.595,-0.604 6.549,-0.604 2.986,0 5.119,0.774 6.553,2.313 1.368,1.451 2.29,3.849 2.29,6.669 0,2.823 -0.698,5.218 -1.974,6.842 -1.654,2.094 -4.1,3.036 -6.964,3.036 -0.637,0 -1.208,-0.041 -1.652,-0.129 l 0,10.303 -4.802,0 0,-28.43 0,0 z m 4.801,13.082 c 0.411,0.128 0.925,0.171 1.621,0.171 2.573,0 4.167,-1.758 4.167,-4.702 0,-2.651 -1.371,-4.234 -3.783,-4.234 -0.988,0 -1.655,0.128 -2.005,0.258 l 0,8.507 z"
       id="path3380"
       inkscape:connector-curvature="0"
       style="fill:#8dc63f;" /><path
       d="m 226.884,76.363 -7.887,0 0,6.847 8.81,0 0,5.341 -13.669,0 0,-28.82 13.225,0 0,5.342 -8.364,0 0,5.991 7.888,0 0,5.299 -0.003,0 z"
       id="path3382"
       inkscape:connector-curvature="0"
       style="fill:#8dc63f;" /><path
       d="m 229.139,60.119 c 1.563,-0.346 3.882,-0.604 6.456,-0.604 3.183,0 5.407,0.643 6.936,2.269 1.271,1.366 1.97,3.378 1.97,6.031 0,3.677 -1.938,6.199 -3.787,7.098 l 0,0.127 c 1.498,0.813 2.324,2.737 2.866,5.386 0.669,3.253 1.333,7.012 1.75,8.123 l -4.963,0 c -0.348,-0.812 -0.858,-3.162 -1.495,-6.709 -0.569,-3.594 -1.491,-4.575 -3.466,-4.618 l -1.461,0 0,11.327 -4.806,0 0,-28.43 z m 4.805,12.399 1.908,0 c 2.414,0 3.847,-1.624 3.847,-4.144 0,-2.655 -1.336,-3.979 -3.563,-4.026 -1.177,0 -1.844,0.13 -2.192,0.217 l 0,7.953 z"
       id="path3384"
       inkscape:connector-curvature="0"
       style="fill:#8dc63f;" /><path
       d="m 251.146,65.204 -5.755,0 0,-5.473 16.47,0 0,5.473 -5.849,0 0,23.346 -4.866,0 0,-23.346 z"
       id="path3386"
       inkscape:connector-curvature="0"
       style="fill:#8dc63f;" /><path
       d="m 269.624,88.549 0,-11.799 -6.771,-17.02 5.532,0 2.194,6.928 c 0.669,2.096 1.113,3.634 1.653,5.517 l 0.062,0 c 0.478,-1.797 0.991,-3.463 1.623,-5.517 l 2.162,-6.928 5.438,0 -7.059,16.806 0,12.013 -4.834,0 z"
       id="path3388"
       inkscape:connector-curvature="0"
       style="fill:#8dc63f;" /></g><path
     style="fill:#ffffff;stroke:none;stroke-opacity:1"
     inkscape:connector-curvature="0"
     id="path3392"
     d="M 162.343,65.523" /><g
     id="g4249"
     transform="translate(-7.303,-45.99)"
     style=""><path
       d="m 161.898,110.391 c -0.15,-4.044 -0.33,-8.903 -0.3,-12.518 l -0.091,0 c -0.69,3.398 -1.53,7.014 -2.551,11.013 l -3.572,14.066 -1.979,0 -3.271,-13.81 c -0.96,-4.087 -1.77,-7.828 -2.34,-11.271 l -0.061,0 c -0.061,3.613 -0.21,8.474 -0.39,12.818 l -0.541,12.432 -2.491,0 1.411,-28.992 3.331,0 3.451,14.022 c 0.84,3.571 1.529,6.752 2.04,9.766 l 0.09,0 c 0.511,-2.925 1.229,-6.107 2.131,-9.766 l 3.6,-14.022 3.332,0 1.26,28.992 -2.551,0 -0.508,-12.73 z"
       id="path3394"
       inkscape:connector-curvature="0"
       style="fill:#ffffff;" /><path
       d="m 170.107,114.006 -2.102,9.117 -2.7,0 6.871,-28.992 3.15,0 6.901,28.992 -2.79,0 -2.162,-9.117 -7.168,0 0,0 z m 6.63,-2.926 -1.98,-8.346 c -0.447,-1.894 -0.748,-3.613 -1.05,-5.292 l -0.059,0 c -0.301,1.721 -0.63,3.485 -1.021,5.248 l -1.979,8.39 6.089,0 z"
       id="path3396"
       inkscape:connector-curvature="0"
       style="fill:#ffffff;" /><path
       d="m 182.741,123.123 0,-28.992 2.851,0 6.481,14.667 c 1.499,3.398 2.669,6.453 3.629,9.421 l 0.063,-0.042 c -0.241,-3.873 -0.301,-7.399 -0.301,-11.916 l 0,-12.13 2.459,0 0,28.992 -2.642,0 -6.419,-14.711 c -1.411,-3.227 -2.762,-6.538 -3.78,-9.679 l -0.091,0.044 c 0.149,3.656 0.209,7.141 0.209,11.958 l 0,12.389 -2.459,-10e-4 0,0 z"
       id="path3398"
       inkscape:connector-curvature="0"
       style="fill:#ffffff;" /><path
       d="m 203.296,114.006 -2.1,9.117 -2.701,0 6.87,-28.992 3.15,0 6.901,28.992 -2.789,0 -2.162,-9.117 -7.169,0 0,0 z m 6.632,-2.926 -1.981,-8.346 c -0.449,-1.894 -0.75,-3.613 -1.052,-5.292 l -0.061,0 c -0.299,1.721 -0.63,3.485 -1.019,5.248 l -1.982,8.39 6.095,0 z"
       id="path3400"
       inkscape:connector-curvature="0"
       style="fill:#ffffff;" /><path
       d="m 230.875,121.833 c -1.174,0.604 -3.482,1.591 -6.213,1.591 -3.061,0 -5.584,-1.117 -7.563,-3.828 -1.738,-2.409 -2.821,-6.278 -2.821,-10.797 0.03,-8.646 4.172,-14.968 10.953,-14.968 2.344,0 4.173,0.731 5.043,1.333 l -0.63,3.055 c -1.081,-0.689 -2.432,-1.248 -4.474,-1.248 -4.921,0 -8.13,4.387 -8.13,11.655 0,7.355 3.091,11.701 7.802,11.701 1.712,0 2.882,-0.345 3.48,-0.775 l 0,-8.646 -4.112,0 0,-3.011 6.664,0 0,13.938 0.001,0 z"
       id="path3402"
       inkscape:connector-curvature="0"
       style="fill:#ffffff;" /><path
       d="m 242.262,109.531 -7.862,0 0,10.453 8.762,0 0,3.14 -11.372,0 0,-28.993 10.923,0 0,3.141 -8.313,0 0,9.162 7.861,0 0.001,3.097 0,0 z"
       id="path3404"
       inkscape:connector-curvature="0"
       style="fill:#ffffff;" /><path
       d="m 261.753,110.391 c -0.148,-4.044 -0.33,-8.903 -0.301,-12.518 l -0.091,0 c -0.691,3.398 -1.529,7.014 -2.551,11.013 l -3.569,14.066 -1.981,0 -3.271,-13.81 c -0.961,-4.087 -1.771,-7.828 -2.343,-11.271 l -0.06,0 c -0.06,3.613 -0.21,8.474 -0.391,12.818 l -0.539,12.432 -2.491,0 1.412,-28.992 3.331,0 3.449,14.022 c 0.84,3.571 1.53,6.752 2.042,9.766 l 0.09,0 c 0.51,-2.925 1.229,-6.107 2.13,-9.766 l 3.601,-14.022 3.33,0 1.263,28.992 -2.551,0 -0.509,-12.73 z"
       id="path3406"
       inkscape:connector-curvature="0"
       style="fill:#ffffff;" /><path
       d="m 276.23,109.531 -7.861,0 0,10.453 8.762,0 0,3.14 -11.373,0 0,-28.993 10.925,0 0,3.141 -8.313,0 0,9.162 7.861,0 0,3.097 -10e-4,0 z"
       id="path3408"
       inkscape:connector-curvature="0"
       style="fill:#ffffff;" /><path
       d="m 278.062,123.123 0,-28.992 2.85,0 6.481,14.667 c 1.503,3.398 2.671,6.453 3.63,9.421 l 0.061,-0.042 c -0.237,-3.873 -0.299,-7.399 -0.299,-11.916 l 0,-12.13 2.459,0 0,28.992 -2.64,0 -6.422,-14.711 c -1.412,-3.227 -2.762,-6.538 -3.782,-9.679 l -0.088,0.044 c 0.147,3.656 0.21,7.141 0.21,11.958 l 0,12.389 -2.46,-10e-4 0,0 z"
       id="path3410"
       inkscape:connector-curvature="0"
       style="fill:#ffffff;" /><path
       d="m 299.804,97.315 -6.153,0 0,-3.184 14.972,0 0,3.184 -6.181,0 0,25.809 -2.638,0 0,-25.809 z"
       id="path3412"
       inkscape:connector-curvature="0"
       style="fill:#ffffff;" /></g></svg>